# xmcd CD database file
#
# Track frame offsets:
#	150
#	16385
#	37537
#	57510
#	60972
#	79260
#	97030
#	117035
#	133177
#	149885
#	168087
#
# Disc length: 2437 seconds
#
# Revision: 0
# Processed by: cddbd v1.5.1PL0 Copyright (c) Steve Scherf et al.
# Submitted via: CDex 1.51
#
DISCID=8f09830b
DTITLE=町田義人 - WHISPER BLUE
DYEAR=1900
DGENRE=Soul
TTITLE0=逆光線のフィナーレ
TTITLE1=枯葉の街
TTITLE2=200マイルの逃亡
TTITLE3=Shot Gun
TTITLE4=Someday Somenight
TTITLE5=風物語
TTITLE6=Gypsy Woman
TTITLE7=もう　いいわ
TTITLE8=リオの二人
TTITLE9=アディオス・アモール
TTITLE10=I need you
EXTD=
EXTT0=
EXTT1=
EXTT2=
EXTT3=
EXTT4=
EXTT5=
EXTT6=
EXTT7=
EXTT8=
EXTT9=
EXTT10=
PLAYORDER=
